<?xml version="1.0" encoding="utf-8" standalone="no"?>
<!DOCTYPE svg PUBLIC "-//W3C//DTD SVG 1.0//EN" "http://www.w3.org/TR/SVG/DTD/svg10.dtd">
<!-- Rendered by FLANGE from 160-fish-cycle -->
<svg
   xmlns:svg="http://www.w3.org/2000/svg"
   xmlns="http://www.w3.org/2000/svg"
   version="1.0"
   viewBox="0 0 600 600"
   width="100%"
   height="100%">
  <g stroke-width="1" stroke="green" transform="matrix(1 0 0 -1 0 600)">
    <line x1="187" y1="480" x2="100" y2="440" />
    <line x1="100" y1="400" x2="187" y2="480" />
    <line x1="187" y1="480" x2="100" y2="575" />
    <line x1="100" y1="575" x2="125" y2="600" />
    <line x1="125" y1="600" x2="100" y2="600" />
    <line x1="12" y1="480" x2="100" y2="440" />
    <line x1="100" y1="400" x2="12" y2="480" />
    <line x1="12" y1="480" x2="100" y2="575" />
    <line x1="100" y1="575" x2="75" y2="600" />
    <line x1="75" y1="600" x2="100" y2="600" />
    <line x1="280" y1="412" x2="240" y2="500" />
    <line x1="200" y1="500" x2="280" y2="412" />
    <line x1="280" y1="412" x2="375" y2="500" />
    <line x1="375" y1="500" x2="400" y2="475" />
    <line x1="400" y1="475" x2="400" y2="500" />
    <line x1="280" y1="587" x2="240" y2="500" />
    <line x1="200" y1="500" x2="280" y2="587" />
    <line x1="280" y1="587" x2="375" y2="500" />
    <line x1="375" y1="500" x2="400" y2="525" />
    <line x1="400" y1="525" x2="400" y2="500" />
    <line x1="480" y1="412" x2="440" y2="500" />
    <line x1="400" y1="500" x2="480" y2="412" />
    <line x1="480" y1="412" x2="575" y2="500" />
    <line x1="575" y1="500" x2="600" y2="475" />
    <line x1="600" y1="475" x2="600" y2="500" />
    <line x1="480" y1="587" x2="440" y2="500" />
    <line x1="400" y1="500" x2="480" y2="587" />
    <line x1="480" y1="587" x2="575" y2="500" />
    <line x1="575" y1="500" x2="600" y2="525" />
    <line x1="600" y1="525" x2="600" y2="500" />
    <line x1="187" y1="280" x2="100" y2="240" />
    <line x1="100" y1="200" x2="187" y2="280" />
    <line x1="187" y1="280" x2="100" y2="375" />
    <line x1="100" y1="375" x2="125" y2="400" />
    <line x1="125" y1="400" x2="100" y2="400" />
    <line x1="12" y1="280" x2="100" y2="240" />
    <line x1="100" y1="200" x2="12" y2="280" />
    <line x1="12" y1="280" x2="100" y2="375" />
    <line x1="100" y1="375" x2="75" y2="400" />
    <line x1="75" y1="400" x2="100" y2="400" />
    <line x1="412" y1="320" x2="500" y2="360" />
    <line x1="500" y1="400" x2="412" y2="320" />
    <line x1="412" y1="320" x2="500" y2="225" />
    <line x1="500" y1="225" x2="475" y2="200" />
    <line x1="475" y1="200" x2="500" y2="200" />
    <line x1="587" y1="320" x2="500" y2="360" />
    <line x1="500" y1="400" x2="587" y2="320" />
    <line x1="587" y1="320" x2="500" y2="225" />
    <line x1="500" y1="225" x2="525" y2="200" />
    <line x1="525" y1="200" x2="500" y2="200" />
    <line x1="120" y1="187" x2="160" y2="100" />
    <line x1="200" y1="100" x2="120" y2="187" />
    <line x1="120" y1="187" x2="25" y2="100" />
    <line x1="25" y1="100" x2="0" y2="125" />
    <line x1="0" y1="125" x2="0" y2="100" />
    <line x1="120" y1="12" x2="160" y2="100" />
    <line x1="200" y1="100" x2="120" y2="12" />
    <line x1="120" y1="12" x2="25" y2="100" />
    <line x1="25" y1="100" x2="0" y2="75" />
    <line x1="0" y1="75" x2="0" y2="100" />
    <line x1="320" y1="187" x2="360" y2="100" />
    <line x1="400" y1="100" x2="320" y2="187" />
    <line x1="320" y1="187" x2="225" y2="100" />
    <line x1="225" y1="100" x2="200" y2="125" />
    <line x1="200" y1="125" x2="200" y2="100" />
    <line x1="320" y1="12" x2="360" y2="100" />
    <line x1="400" y1="100" x2="320" y2="12" />
    <line x1="320" y1="12" x2="225" y2="100" />
    <line x1="225" y1="100" x2="200" y2="75" />
    <line x1="200" y1="75" x2="200" y2="100" />
    <line x1="412" y1="120" x2="500" y2="160" />
    <line x1="500" y1="200" x2="412" y2="120" />
    <line x1="412" y1="120" x2="500" y2="25" />
    <line x1="500" y1="25" x2="475" y2="0" />
    <line x1="475" y1="0" x2="500" y2="0" />
    <line x1="587" y1="120" x2="500" y2="160" />
    <line x1="500" y1="200" x2="587" y2="120" />
    <line x1="587" y1="120" x2="500" y2="25" />
    <line x1="500" y1="25" x2="525" y2="0" />
    <line x1="525" y1="0" x2="500" y2="0" />
  </g>
</svg>
